<?xml version="1.0" standalone="no"?>
<!DOCTYPE svg PUBLIC "-//W3C//DTD SVG 20010904//EN"
 "http://www.w3.org/TR/2001/REC-SVG-20010904/DTD/svg10.dtd">
<svg version="1.0" xmlns="http://www.w3.org/2000/svg"
 width="487.000000pt" height="513.000000pt" viewBox="0 0 487.000000 513.000000"
 preserveAspectRatio="xMidYMid meet">

<g transform="translate(0.000000,513.000000) scale(0.100000,-0.100000)"
fill="#000000" stroke="none">
<path d="M1123 5012 c-183 -36 -347 -164 -432 -335 -42 -84 -44 -95 -52 -205
-10 -150 -10 -3229 0 -3633 l8 -306 33 -64 c88 -170 181 -258 344 -325 l81
-34 1306 0 c1270 0 1307 1 1363 20 171 58 293 165 372 324 l47 96 7 252 c10
338 11 2846 2 3364 l-8 410 -40 85 c-73 151 -166 242 -324 318 l-75 35 -390 8
c-648 13 -2162 6 -2242 -10z m2638 -239 c85 -42 154 -111 193 -193 l31 -65 0
-1955 0 -1955 -29 -58 c-37 -72 -128 -160 -203 -195 l-58 -27 -1215 -3 c-705
-2 -1247 1 -1292 7 -42 5 -98 19 -123 31 -66 32 -146 114 -181 185 l-29 60 -5
1095 c-3 602 -3 1484 0 1960 l5 865 27 58 c39 83 118 157 210 196 l73 31 1265
-3 1265 -2 66 -32z"/>
<path d="M2327 4229 c-146 -34 -276 -181 -293 -329 -18 -166 66 -314 224 -394
66 -33 78 -36 163 -36 85 0 95 2 159 36 91 47 170 130 199 208 32 86 32 196 0
277 -28 72 -100 157 -166 196 -79 46 -195 63 -286 42z m204 -257 c54 -54 69
-101 50 -162 -23 -77 -82 -120 -166 -120 -57 0 -96 19 -132 67 -24 31 -28 46
-28 99 0 70 17 102 75 142 25 17 47 22 93 22 58 0 61 -1 108 -48z"/>
<path d="M2235 3333 c-60 -8 -182 -43 -253 -72 -147 -61 -292 -182 -346 -290
-51 -100 -73 -279 -42 -339 34 -66 -17 -62 826 -62 l765 0 28 23 c37 29 50 90
41 187 -16 182 -110 319 -293 426 -87 51 -208 96 -314 118 -71 15 -326 20
-412 9z m415 -234 c165 -38 312 -134 359 -234 39 -82 93 -75 -589 -75 l-610 0
0 23 c0 38 58 125 108 162 59 44 169 97 247 120 133 38 330 40 485 4z"/>
<path d="M1338 2191 c-27 -24 -32 -35 -31 -70 2 -48 16 -76 46 -93 17 -10 239
-13 1047 -15 564 -1 1037 0 1052 4 74 15 104 111 54 170 l-24 28 -1056 3
-1055 2 -33 -29z"/>
<path d="M1375 1653 c-79 -20 -93 -140 -22 -183 31 -19 60 -20 1074 -20 l1041
0 31 31 c41 40 43 103 7 146 l-24 28 -1044 1 c-573 1 -1052 0 -1063 -3z"/>
<path d="M1360 1087 c-14 -7 -33 -28 -42 -47 -22 -45 -10 -99 29 -130 26 -20
33 -20 1075 -20 l1050 0 29 29 c24 24 29 38 29 76 0 40 -5 52 -31 76 l-31 29
-1042 0 c-809 0 -1047 -3 -1066 -13z"/>
</g>
</svg>
