<?xml version="1.0" standalone="no"?>
<!DOCTYPE svg PUBLIC "-//W3C//DTD SVG 20010904//EN"
 "http://www.w3.org/TR/2001/REC-SVG-20010904/DTD/svg10.dtd">
<svg version="1.0" xmlns="http://www.w3.org/2000/svg"
 width="935.000000pt" height="835.000000pt" viewBox="0 0 935.000000 835.000000"
 preserveAspectRatio="xMidYMid meet">

<g transform="translate(0.000000,835.000000) scale(0.100000,-0.100000)"
fill="#000000" stroke="none">
<path d="M3060 8073 c-137 -14 -288 -70 -406 -150 -120 -82 -238 -232 -298
-379 -60 -148 -57 33 -54 -2879 4 -2992 -5 -2684 82 -2861 107 -216 269 -356
506 -437 l95 -32 1765 0 1765 0 95 32 c241 83 402 224 510 448 87 179 80 -78
80 2884 0 2885 4 2701 -60 2855 -84 202 -230 351 -434 446 -172 80 -15 74
-1916 76 -932 0 -1711 -1 -1730 -3z m3445 -318 c182 -48 332 -198 380 -380 13
-52 15 -358 15 -2667 0 -1894 -3 -2622 -11 -2660 -41 -191 -214 -362 -411
-404 -93 -20 -3363 -20 -3456 0 -194 42 -357 199 -407 393 -13 50 -15 388 -15
2666 0 2348 2 2615 16 2671 45 176 174 312 353 373 l66 22 1705 1 c1500 0
1713 -2 1765 -15z"/>
<path d="M4605 6981 c-177 -51 -318 -193 -370 -374 -33 -116 -15 -283 43 -392
15 -27 57 -80 93 -117 51 -52 86 -77 155 -110 l89 -43 135 0 135 0 89 43 c148
71 253 194 291 342 20 77 22 188 5 262 -43 184 -200 344 -386 392 -79 21 -203
19 -279 -3z m220 -292 c51 -14 130 -93 144 -146 44 -158 -61 -303 -219 -303
-157 0 -263 145 -220 301 15 52 82 124 133 142 51 19 108 21 162 6z"/>
<path d="M4630 5769 c-514 -27 -947 -315 -1016 -675 -7 -42 -14 -119 -14 -172
0 -112 15 -153 69 -189 l34 -23 1047 0 1047 0 34 23 c54 36 69 77 69 189 0
189 -45 322 -152 455 -148 182 -416 322 -723 378 -73 14 -268 20 -395 14z
m338 -314 c133 -23 200 -44 318 -100 166 -80 268 -187 299 -317 l7 -28 -841 0
-841 0 6 28 c11 48 43 112 74 152 93 117 307 223 534 265 99 18 342 18 444 0z"/>
<path d="M3300 4222 c-19 -9 -45 -33 -58 -52 -20 -29 -23 -44 -20 -88 5 -61
29 -99 79 -124 32 -17 122 -18 1449 -18 1327 0 1417 1 1450 18 50 25 80 75 80
132 0 57 -30 107 -80 132 -33 17 -123 18 -1450 18 -1327 0 -1417 -1 -1450 -18z"/>
<path d="M3300 3452 c-107 -53 -107 -206 0 -259 l44 -23 1411 0 1410 0 40 23
c98 55 100 198 3 257 -33 20 -54 20 -1453 20 -1332 0 -1422 -1 -1455 -18z"/>
<path d="M3347 2700 c-99 -12 -154 -116 -112 -211 11 -23 33 -49 54 -62 l36
-22 1425 0 1425 0 36 23 c50 30 73 81 66 145 -4 43 -10 56 -45 89 -37 34 -47
38 -94 38 -29 0 -658 1 -1398 3 -740 1 -1367 0 -1393 -3z"/>
</g>
</svg>
