<svg xmlns:dc="http://purl.org/dc/elements/1.1/" xmlns:cc="http://creativecommons.org/ns#" xmlns:rdf="http://www.w3.org/1999/02/22-rdf-syntax-ns#" xmlns:svg="http://www.w3.org/2000/svg" xmlns="http://www.w3.org/2000/svg" xmlns:sodipodi="http://sodipodi.sourceforge.net/DTD/sodipodi-0.dtd" xmlns:inkscape="http://www.inkscape.org/namespaces/inkscape" version="1.1" x="0px" y="0px" viewBox="0 0 100 125"><g transform="translate(0,-952.36218)"><path style="font-size:medium;font-style:normal;font-variant:normal;font-weight:normal;font-stretch:normal;text-indent:0;text-align:start;text-decoration:none;line-height:normal;letter-spacing:normal;word-spacing:normal;text-transform:none;direction:ltr;block-progression:tb;writing-mode:lr-tb;text-anchor:start;baseline-shift:baseline;opacity:1;color:#000000;fill:#000000;fill-opacity:1;stroke:none;stroke-width:3.99999951999999980;marker:none;visibility:visible;display:inline;overflow:visible;enable-background:accumulate;font-family:Sans;-inkscape-font-specification:Sans" d="M 29 6 C 22.940602 6 18 10.9406 18 17 L 18 83 C 18 89.0594 22.940602 94 29 94 L 71 94 C 77.059398 94 82 89.0594 82 83 L 82 17 C 82 10.9406 77.059398 6 71 6 L 29 6 z M 29 10 L 71 10 C 74.912587 10 78 13.08741 78 17 L 78 83 C 78 86.9126 74.912587 90 71 90 L 29 90 C 25.087413 90 22 86.9126 22 83 L 22 17 C 22 13.08741 25.087413 10 29 10 z M 50 20 C 46.1577 20 43 23.1577 43 27 C 43 30.8423 46.1577 34 50 34 C 53.8423 34 57 30.8423 57 27 C 57 23.1577 53.8423 20 50 20 z M 50 24 C 51.68054 24 53 25.31946 53 27 C 53 28.68054 51.68054 30 50 30 C 48.31946 30 47 28.68054 47 27 C 47 25.31946 48.31946 24 50 24 z M 50 36 C 46.045469 36 42.453725 37.01315 39.71875 38.78125 C 36.983775 40.54935 35 43.19917 35 46.3125 L 35 48 A 2.0001999 2.0001999 0 0 0 37 50 L 63 50 A 2.0001999 2.0001999 0 0 0 65 48 L 65 46.3125 C 65 43.19917 63.016225 40.54935 60.28125 38.78125 C 57.546275 37.01315 53.954531 36 50 36 z M 50 40 C 53.247469 40 56.160475 40.88623 58.125 42.15625 C 59.946751 43.33397 60.781567 44.68814 60.90625 46 L 39.09375 46 C 39.218433 44.68814 40.053249 43.33397 41.875 42.15625 C 43.839525 40.88623 46.752531 40 50 40 z M 32 56 C 30.89543 56 30 56.8954 30 58 C 30 59.1046 30.89543 60 32 60 L 68 60 C 69.10457 60 70 59.1046 70 58 C 70 56.8954 69.10457 56 68 56 L 32 56 z M 32 66 C 30.89543 66 30 66.8954 30 68 C 30 69.1046 30.89543 70 32 70 L 68 70 C 69.10457 70 70 69.1046 70 68 C 70 66.8954 69.10457 66 68 66 L 32 66 z M 32 76 C 30.89543 76 30 76.8954 30 78 C 30 79.1046 30.89543 80 32 80 L 68 80 C 69.10457 80 70 79.1046 70 78 C 70 76.8954 69.10457 76 68 76 L 32 76 z " transform="translate(0,952.36218)"/></g><text x="0" y="115" fill="#000000" font-size="5px" font-weight="bold" font-family="'Helvetica Neue', Helvetica, Arial-Unicode, Arial, Sans-serif">Created by Rockicon</text><text x="0" y="120" fill="#000000" font-size="5px" font-weight="bold" font-family="'Helvetica Neue', Helvetica, Arial-Unicode, Arial, Sans-serif">from the Noun Project</text></svg>