<?xml version="1.0" standalone="no"?>
<!DOCTYPE svg PUBLIC "-//W3C//DTD SVG 20010904//EN"
 "http://www.w3.org/TR/2001/REC-SVG-20010904/DTD/svg10.dtd">
<svg version="1.0" xmlns="http://www.w3.org/2000/svg"
 width="100.000000pt" height="100.000000pt" viewBox="0 0 100.000000 100.000000"
 preserveAspectRatio="xMidYMid meet">

<g transform="translate(0.000000,100.000000) scale(0.100000,-0.100000)"
fill="#000000" stroke="none">
<path d="M679 853 c-89 -46 -121 -126 -80 -206 18 -36 18 -37 0 -72 -11 -20
-17 -40 -14 -45 8 -13 52 -13 95 1 19 6 60 11 90 10 110 -3 210 77 210 169 0
87 -97 170 -200 170 -31 0 -65 -9 -101 -27z m178 -33 c46 -21 83 -69 83 -110
0 -71 -91 -137 -177 -127 -24 2 -60 -1 -81 -8 -20 -7 -38 -12 -40 -10 -1 1 2
14 8 27 10 20 8 31 -9 59 -12 19 -21 45 -21 59 0 64 81 130 160 130 19 0 54
-9 77 -20z"/>
<path d="M764 789 c-10 -17 13 -36 27 -22 12 12 4 33 -11 33 -5 0 -12 -5 -16
-11z"/>
<path d="M764 727 c-11 -29 0 -102 16 -102 19 0 22 106 3 112 -7 3 -16 -2 -19
-10z"/>
<path d="M300 749 c-67 -28 -100 -91 -100 -191 0 -72 23 -146 49 -162 6 -4 11
-20 11 -35 0 -25 -7 -31 -65 -56 -37 -15 -77 -41 -94 -61 -30 -33 -49 -93 -36
-113 9 -15 581 -15 590 0 13 20 -6 80 -36 113 -17 20 -57 46 -94 61 -58 25
-65 31 -65 56 0 15 5 31 11 35 26 16 49 90 49 162 0 85 -22 137 -71 173 -36
25 -111 34 -149 18z m144 -68 c28 -28 31 -38 34 -106 4 -80 -6 -121 -39 -151
-24 -22 -26 -96 -3 -115 9 -7 48 -29 87 -49 57 -28 74 -42 84 -68 l13 -32
-260 0 -260 0 13 33 c10 25 29 40 85 68 39 20 79 42 87 49 22 19 20 93 -4 114
-33 30 -43 71 -39 150 3 63 7 79 28 101 33 36 57 46 104 41 27 -3 49 -14 70
-35z"/>
</g>
</svg>
