<?xml version="1.0" standalone="no"?>
<!DOCTYPE svg PUBLIC "-//W3C//DTD SVG 20010904//EN"
 "http://www.w3.org/TR/2001/REC-SVG-20010904/DTD/svg10.dtd">
<svg version="1.0" xmlns="http://www.w3.org/2000/svg"
 width="900.000000pt" height="900.000000pt" viewBox="0 0 900.000000 900.000000"
 preserveAspectRatio="xMidYMid meet">

<g transform="translate(0.000000,900.000000) scale(0.100000,-0.100000)"
fill="#000000" stroke="none">
<path d="M6850 8184 c-14 -2 -56 -9 -95 -15 -93 -15 -226 -59 -317 -105 -317
-160 -550 -447 -640 -789 -29 -112 -31 -132 -32 -295 0 -146 3 -189 21 -260
12 -47 25 -93 28 -102 6 -14 -218 -130 -1395 -718 -1400 -700 -1402 -701
-1418 -679 -125 179 -355 347 -586 428 -289 102 -651 78 -931 -61 -237 -118
-459 -347 -564 -580 -123 -276 -144 -588 -56 -866 100 -316 328 -584 620 -730
220 -109 510 -150 757 -107 268 46 529 198 705 410 37 44 68 81 69 83 1 2 632
-312 1402 -697 l1400 -700 -19 -72 c-86 -329 -23 -695 171 -985 68 -101 223
-256 324 -324 114 -76 249 -137 384 -172 108 -29 130 -31 292 -32 150 0 188 3
265 22 252 64 423 159 596 331 172 173 267 344 331 596 19 77 22 115 22 265
-1 162 -3 184 -32 292 -57 219 -160 398 -321 559 -161 161 -340 264 -559 321
-109 29 -128 31 -292 31 -128 0 -195 -4 -248 -16 -245 -56 -437 -161 -608
-331 -50 -50 -103 -107 -117 -126 l-27 -35 -1400 700 c-947 473 -1399 704
-1395 713 36 95 59 281 51 422 -5 99 -30 250 -50 300 -5 12 310 173 1394 715
l1400 700 31 -40 c18 -22 72 -80 121 -128 128 -127 289 -227 452 -282 147 -49
210 -58 396 -58 163 0 183 2 290 30 345 91 636 325 792 638 91 181 122 318
121 545 0 163 -2 183 -31 292 -57 219 -160 398 -321 559 -162 162 -342 265
-559 321 -96 24 -142 30 -257 33 -77 2 -151 2 -165 -1z m275 -369 c175 -31
316 -106 450 -240 180 -179 266 -401 252 -645 -11 -165 -51 -288 -143 -426
-129 -196 -333 -329 -565 -370 -432 -75 -855 198 -971 627 -31 116 -31 317 0
432 68 251 251 462 487 565 155 67 321 86 490 57z m-4860 -2495 c287 -92 495
-302 581 -585 24 -79 27 -107 27 -230 1 -114 -4 -155 -21 -220 -87 -315 -328
-546 -648 -621 -52 -12 -103 -15 -209 -12 -125 4 -151 8 -235 37 -389 131
-628 502 -582 904 41 367 305 661 666 743 97 22 332 13 421 -16z m4926 -2468
c327 -86 575 -363 629 -702 82 -525 -359 -1009 -890 -977 -210 13 -384 87
-535 228 -84 79 -133 144 -185 248 -63 125 -83 212 -84 371 -1 156 20 253 81
374 131 262 347 421 653 480 55 10 257 -3 331 -22z"/>
</g>
</svg>
