<?xml version="1.0" standalone="no"?>
<!DOCTYPE svg PUBLIC "-//W3C//DTD SVG 20010904//EN"
 "http://www.w3.org/TR/2001/REC-SVG-20010904/DTD/svg10.dtd">
<svg version="1.0" xmlns="http://www.w3.org/2000/svg"
 width="512.000000pt" height="512.000000pt" viewBox="0 0 512.000000 512.000000"
 preserveAspectRatio="xMidYMid meet">

<g transform="translate(0.000000,512.000000) scale(0.100000,-0.100000)"
fill="#000000" stroke="none">
<path d="M2320 5070 c-488 -51 -934 -229 -1320 -528 -127 -99 -355 -331 -452
-462 -210 -282 -351 -575 -433 -905 -32 -127 -61 -299 -67 -399 l-3 -50 675
-278 674 -278 68 35 c83 44 201 75 283 75 l63 0 308 448 309 447 6 90 c34 483
424 860 914 882 260 12 501 -79 692 -261 191 -182 288 -392 300 -651 7 -134
-7 -229 -51 -358 -44 -128 -113 -241 -210 -344 -168 -178 -383 -281 -628 -299
l-92 -7 -435 -311 -436 -312 -8 -83 c-26 -286 -223 -524 -507 -612 -109 -34
-283 -33 -392 3 -116 39 -204 92 -289 177 -83 84 -130 158 -170 270 l-26 73
-468 194 c-258 106 -471 192 -472 190 -6 -5 57 -175 101 -277 264 -598 772
-1083 1390 -1324 404 -158 885 -209 1313 -140 1015 164 1832 932 2058 1935 79
349 79 752 -1 1109 -92 411 -306 821 -593 1134 -402 439 -923 715 -1516 803
-121 18 -468 26 -585 14z"/>
<path d="M3250 3814 c-229 -49 -431 -246 -484 -474 -20 -83 -20 -217 -1 -299
50 -211 224 -393 440 -461 106 -34 262 -32 372 4 278 90 457 353 440 645 -22
388 -388 667 -767 585z m261 -160 c140 -42 244 -130 307 -261 36 -77 37 -80
37 -198 0 -140 -17 -196 -90 -293 -171 -227 -509 -252 -711 -53 -106 104 -149
214 -142 369 3 87 7 105 41 175 81 171 242 275 428 276 42 1 99 -6 130 -15z"/>
<path d="M1657 2106 c-26 -7 -49 -15 -51 -17 -3 -2 76 -37 174 -78 192 -80
249 -116 305 -195 51 -72 70 -137 70 -236 0 -74 -4 -93 -32 -151 -70 -150
-206 -239 -363 -239 -71 0 -120 15 -299 89 -80 33 -147 59 -149 57 -10 -10 37
-77 92 -132 102 -102 229 -154 375 -154 157 0 266 45 377 155 81 80 126 162
149 270 18 88 18 132 0 218 -42 198 -197 361 -391 411 -73 19 -190 20 -257 2z"/>
</g>
</svg>
