<?xml version="1.0" standalone="no"?>
<!DOCTYPE svg PUBLIC "-//W3C//DTD SVG 20010904//EN"
 "http://www.w3.org/TR/2001/REC-SVG-20010904/DTD/svg10.dtd">
<svg version="1.0" xmlns="http://www.w3.org/2000/svg"
 width="181.000000pt" height="181.000000pt" viewBox="0 0 181.000000 181.000000"
 preserveAspectRatio="xMidYMid meet">

<g transform="translate(0.000000,181.000000) scale(0.100000,-0.100000)"
fill="#000000" stroke="none">
<path d="M0 1375 l0 -435 435 0 435 0 0 435 0 435 -435 0 -435 0 0 -435z"/>
<path d="M940 1375 l0 -435 435 0 435 0 0 435 0 435 -435 0 -435 0 0 -435z"/>
<path d="M0 435 l0 -435 435 0 435 0 0 435 0 435 -435 0 -435 0 0 -435z"/>
<path d="M940 435 l0 -435 435 0 435 0 0 435 0 435 -435 0 -435 0 0 -435z"/>
</g>
</svg>
